#!OML:ASF C:\Vicon Data\Big\jianyuan-13\jianyuan\Session 1\Capture.male.ASF
:FULLY-SPECIFIED
:DEGREES
153
root -7.887892 17.404108 -7.626595 7.166417 -0.032966 2.369753
lowerback -13.468902 3.069272 -3.916084 
upperback -0.437551 4.838974 -2.172853 
thorax 6.953949 2.267151 0.825214 
lowerneck -4.070630 -4.247045 3.666787 
upperneck -3.616918 -5.842361 -2.741785 
head -0.635960 -2.956742 -1.490859 
rclavicle 0.000000 0.000000 
rhumerus -35.150645 -14.672664 -87.634695 
rradius 30.760789 
rwrist 29.700549 
rhand -16.186964 -20.100746 
rfingers 0.000000 
rthumb 10.019756 -49.842272 
lclavicle 0.000000 0.000000 
lhumerus -68.817031 49.922387 31.256830 
lradius 20.488404 
lwrist -80.843797 
lhand -20.555313 3.494672 
lfingers 0.000000 
lthumb 5.803686 33.395198 
rfemur -8.931982 -3.516416 17.094292 
rtibia 63.706072 
rfoot 5.863837 -7.980116 
rtoes -36.438539 
lfemur -31.563189 -2.213069 -23.690784 
ltibia 28.271176 
lfoot -3.710203 5.262438 
ltoes -22.918368 
154
root -7.874385 17.407636 -7.574004 6.990937 0.295528 2.521730
lowerback -13.277498 2.916737 -4.050518 
upperback -0.401891 4.647522 -2.167792 
thorax 6.880756 2.171285 0.859830 
lowerneck -3.900058 -4.225241 3.557134 
upperneck -3.629288 -5.804163 -2.718563 
head -0.662697 -2.935308 -1.460275 
rclavicle 0.000000 0.000000 
rhumerus -35.617405 -14.941304 -87.316717 
rradius 30.546007 
rwrist 30.163798 
rhand -16.195757 -20.117949 
rfingers 0.000000 
rthumb 10.011308 -49.859887 
lclavicle 0.000000 0.000000 
lhumerus -68.228180 50.124301 32.005133 
lradius 20.471025 
lwrist -81.260074 
lhand -20.649961 3.585196 
lfingers 0.000000 
lthumb 5.712304 33.488208 
rfemur -9.453537 -3.738234 16.946356 
rtibia 64.603777 
rfoot 4.933363 -8.910644 
rtoes -34.025167 
lfemur -31.179001 -2.512742 -23.888803 
ltibia 28.284620 
lfoot -3.860172 5.147985 
ltoes -22.667035 
155
root -7.863691 17.413155 -7.519568 6.920435 0.383895 2.643730
lowerback -13.211855 2.856169 -4.161539 
upperback -0.392937 4.581965 -2.186231 
thorax 6.848913 2.136856 0.886416 
lowerneck -3.769614 -4.211233 3.493026 
upperneck -3.617289 -5.778305 -2.669469 
head -0.676175 -2.920907 -1.430642 
rclavicle 0.000000 0.000000 
rhumerus -36.039419 -15.185286 -87.048507 
rradius 30.302841 
rwrist 30.485847 
rhand -16.259376 -20.193987 
rfingers 0.000000 
rthumb 9.949942 -49.938841 
lclavicle 0.000000 0.000000 
lhumerus -67.158971 50.167713 33.305297 
lradius 20.483523 
lwrist -81.122340 
lhand -20.714541 3.814750 
lfingers 0.000000 
lthumb 5.649950 33.719451 
rfemur -10.197281 -3.920559 16.780208 
rtibia 65.490909 
rfoot 4.145158 -9.692190 
rtoes -32.381691 
lfemur -30.890312 -2.592141 -24.068186 
ltibia 28.294256 
lfoot -4.023267 5.033177 
ltoes -22.515475 
156
root -7.853346 17.419765 -7.463370 6.888297 0.357069 2.787356
lowerback -13.210911 2.826702 -4.299900 
upperback -0.380343 4.566254 -2.213935 
thorax 6.854360 2.124789 0.931575 
lowerneck -3.688591 -4.198539 3.472870 
upperneck -3.581227 -5.757313 -2.639337 
head -0.676120 -2.909717 -1.416111 
rclavicle 0.000000 0.000000 
rhumerus -36.425184 -15.440900 -86.771176 
rradius 30.021257 
rwrist 30.847064 
rhand -16.328620 -20.238165 
rfingers 0.000000 
rthumb 9.883122 -49.986184 
lclavicle 0.000000 0.000000 
lhumerus -65.909896 50.201479 34.800611 
lradius 20.528611 
lwrist -80.531897 
lhand -20.689738 3.916975 
lfingers 0.000000 
lthumb 5.673904 33.821026 
rfemur -11.057981 -4.114719 16.573728 
rtibia 66.362302 
rfoot 3.488800 -10.395584 
rtoes -31.400961 
lfemur -30.623212 -2.521726 -24.295116 
ltibia 28.294890 
lfoot -4.182483 4.871715 
ltoes -22.372964 
